<?xml version="1.0" standalone="no"?>
<!DOCTYPE svg PUBLIC "-//W3C//DTD SVG 20010904//EN"
 "http://www.w3.org/TR/2001/REC-SVG-20010904/DTD/svg10.dtd">
<svg version="1.0" xmlns="http://www.w3.org/2000/svg"
 width="900.000000pt" height="900.000000pt" viewBox="0 0 900.000000 900.000000"
 preserveAspectRatio="xMidYMid meet">
<metadata>
Created by potrace 1.15, written by Peter Selinger 2001-2017
</metadata>
<g transform="translate(0.000000,900.000000) scale(0.100000,-0.100000)"
fill="#000000" stroke="none">
<path d="M3650 8993 c-19 -1 -87 -8 -150 -14 -466 -43 -914 -172 -1343 -385
-1143 -568 -1943 -1673 -2116 -2924 -55 -392 -54 -724 0 -1105 155 -1085 770
-2058 1690 -2673 795 -531 1752 -748 2704 -611 600 86 1198 323 1668 663 l69
49 931 -931 c617 -616 951 -942 989 -966 236 -149 538 -117 733 79 200 199
231 509 74 743 -18 26 -449 466 -960 977 l-928 930 97 145 c749 1122 861 2558
294 3775 -436 936 -1214 1655 -2178 2014 -339 126 -679 199 -1067 231 -118 9
-424 11 -507 3z m653 -977 c245 -40 454 -97 659 -180 1058 -424 1777 -1424
1837 -2556 38 -722 -187 -1422 -639 -1990 -96 -120 -309 -337 -420 -426 -466
-376 -989 -594 -1569 -655 -172 -18 -584 -7 -741 20 -411 71 -769 204 -1092
408 -690 435 -1156 1103 -1322 1893 -46 217 -51 281 -51 595 0 320 6 384 61
630 131 591 455 1143 904 1541 476 423 1015 660 1670 738 92 11 609 -3 703
-18z"/>
</g>
</svg>
